<?xml version="1.0" encoding="UTF-8" standalone="no"?>
<!-- Created with Inkscape (http://www.inkscape.org/) -->

<svg
   width="129px"
   height="56px"
   viewBox="0 0 129 56"
   version="1.1"
   id="SVGRoot"
   xmlns="http://www.w3.org/2000/svg"
   xmlns:svg="http://www.w3.org/2000/svg">
  <defs
     id="defs159" />
  <g
     id="layer1">
    <g
       aria-label="efood"
       id="text2412"
       style="font-weight:bold;font-size:29.3333px;line-height:1.25;-inkscape-font-specification:'sans-serif, Bold';fill:#f9f9f9">
      <path
         d="m 36.598991,30.871743 v 1.460935 H 24.610724 q 0.186197,1.804686 1.303384,2.707029 1.117186,0.902342 3.122392,0.902342 1.618488,0 3.30859,-0.472655 1.704425,-0.486979 3.494787,-1.460936 v 3.95312 q -1.819008,0.687499 -3.638016,1.031249 -1.819009,0.358073 -3.638017,0.358073 -4.354162,0 -6.774732,-2.205727 -2.406247,-2.22005 -2.406247,-6.216139 0,-3.924474 2.363279,-6.17317 2.377601,-2.248695 6.531242,-2.248695 3.781246,0 6.044264,2.277341 2.277341,2.277341 2.277341,6.087233 z m -5.270827,-1.704426 q 0,-1.460935 -0.859374,-2.348955 -0.845051,-0.902343 -2.22005,-0.902343 -1.489581,0 -2.42057,0.845051 -0.930988,0.830728 -1.160155,2.406247 z"
         id="path56" />
      <path
         d="m 51.036475,16.649103 v 3.365881 H 48.20054 q -1.08854,0 -1.518227,0.401041 -0.429687,0.386719 -0.429687,1.360676 v 1.117186 h 4.382807 V 26.56055 H 46.252626 V 38.935535 H 41.125028 V 26.56055 h -2.549477 v -3.666663 h 2.549477 v -1.117186 q 0,-2.621091 1.460935,-3.867183 1.460936,-1.260415 4.526037,-1.260415 z"
         id="path58" />
      <path
         d="m 60.876306,26.173831 q -1.704425,0 -2.606767,1.23177 -0.88802,1.217446 -0.88802,3.523433 0,2.305987 0.88802,3.537757 0.902342,1.217446 2.606767,1.217446 1.67578,0 2.5638,-1.217446 0.888019,-1.23177 0.888019,-3.537757 0,-2.305987 -0.888019,-3.523433 -0.88802,-1.23177 -2.5638,-1.23177 z m 0,-3.666662 q 4.139319,0 6.459628,2.234372 2.334633,2.234373 2.334633,6.187493 0,3.953121 -2.334633,6.187493 -2.320309,2.234373 -6.459628,2.234373 -4.153641,0 -6.502596,-2.234373 -2.334633,-2.234372 -2.334633,-6.187493 0,-3.95312 2.334633,-6.187493 2.348955,-2.234372 6.502596,-2.234372 z"
         id="path60" />
      <path
         d="m 81.028627,26.173831 q -1.704425,0 -2.606768,1.23177 -0.888019,1.217446 -0.888019,3.523433 0,2.305987 0.888019,3.537757 0.902343,1.217446 2.606768,1.217446 1.67578,0 2.563799,-1.217446 0.88802,-1.23177 0.88802,-3.537757 0,-2.305987 -0.88802,-3.523433 -0.888019,-1.23177 -2.563799,-1.23177 z m 0,-3.666662 q 4.139318,0 6.459628,2.234372 2.334633,2.234373 2.334633,6.187493 0,3.953121 -2.334633,6.187493 -2.32031,2.234373 -6.459628,2.234373 -4.153641,0 -6.502596,-2.234373 -2.334633,-2.234372 -2.334633,-6.187493 0,-3.95312 2.334633,-6.187493 2.348955,-2.234372 6.502596,-2.234372 z"
         id="path62" />
      <path
         d="m 104.46089,25.242843 v -8.59374 h 5.15625 v 22.286432 h -5.15625 v -2.320309 q -1.05989,1.417967 -2.33463,2.07682 -1.27474,0.658854 -2.950518,0.658854 -2.96484,0 -4.869786,-2.348956 -1.904946,-2.363279 -1.904946,-6.07291 0,-3.709631 1.904946,-6.058587 1.904946,-2.363278 4.869786,-2.363278 1.661458,0 2.936198,0.673176 1.28906,0.658854 2.34895,2.062498 z m -3.3802,10.384102 q 1.64713,0 2.50651,-1.203123 0.87369,-1.203124 0.87369,-3.494788 0,-2.291664 -0.87369,-3.494787 -0.85938,-1.203124 -2.50651,-1.203124 -1.632813,0 -2.50651,1.203124 -0.859374,1.203123 -0.859374,3.494787 0,2.291664 0.859374,3.494788 0.873697,1.203123 2.50651,1.203123 z"
         id="path64" />
    </g>
  </g>
</svg>
